<svg height="202.5" viewBox="0 0 770.88 202.499994" width="770.880005" xmlns="http://www.w3.org/2000/svg" xmlns:xlink="http://www.w3.org/1999/xlink"><clipPath id="a"><path d="m.890625 0h768.980469v202h-768.980469zm0 0"/></clipPath><clipPath id="b"><path d="m.890625 0h203.109375v202h-203.109375zm0 0"/></clipPath><symbol id="c" overflow="visible"><path d="m53.546875-27.671875c0 8.230469-2.355469 15.039063-7.0625 20.421875-4.710937 5.375-10.875 8.0625-18.5 8.0625-7.59375 0-13.726563-2.6875-18.390625-8.0625-4.667969-5.382812-7-12.191406-7-20.421875v-.859375c0-8.1875 2.328125-14.976562 6.984375-20.375 4.65625-5.40625 10.78125-8.109375 18.375-8.109375 7.613281 0 13.78125 2.703125 18.5 8.109375 4.726563 5.398438 7.09375 12.1875 7.09375 20.375zm-11.234375-.9375c0-5.8125-1.214844-10.53125-3.640625-14.15625-2.417969-3.632813-5.992187-5.453125-10.71875-5.453125-4.742187 0-8.277344 1.804688-10.609375 5.40625-2.324219 3.605469-3.484375 8.339844-3.484375 14.203125v.9375c0 5.917969 1.175781 10.683594 3.53125 14.296875 2.351563 3.617188 5.882813 5.421875 10.59375 5.421875 4.757813 0 8.335937-1.804687 10.734375-5.421875 2.394531-3.613281 3.59375-8.378906 3.59375-14.296875zm0 0"/></symbol><symbol id="d" overflow="visible"><path d="m27.40625-56.203125c6.382812 0 11.390625 1.464844 15.015625 4.390625 3.632813 2.917969 5.453125 6.949219 5.453125 12.09375 0 2.824219-.761719 5.28125-2.28125 7.375-1.523438 2.085938-3.75 3.765625-6.6875 5.046875 3.320312.980469 5.707031 2.609375 7.15625 4.890625 1.457031 2.273438 2.1875 5.09375 2.1875 8.46875v2.859375c0 1.242187.242188 2.199219.734375 2.875.488281.679687 1.300781 1.085937 2.4375 1.21875l1.390625.1875v6.796875h-5.828125c-3.679687 0-6.265625-.988281-7.765625-2.96875-1.492188-1.976562-2.234375-4.539062-2.234375-7.6875v-3.203125c0-2.726563-.730469-4.867187-2.1875-6.421875-1.449219-1.5625-3.5-2.378906-6.15625-2.453125h-9.21875v14.828125l6.015625 1.15625v6.75h-23.28125v-6.75l5.984375-1.15625v-40.34375l-5.984375-1.171875v-6.78125zm-7.984375 24.78125h7.796875c3.132812 0 5.488281-.664063 7.0625-2 1.570312-1.34375 2.359375-3.273437 2.359375-5.796875 0-2.519531-.78125-4.53125-2.34375-6.03125-1.554687-1.507812-3.851563-2.265625-6.890625-2.265625h-7.984375zm0 0"/></symbol><symbol id="e" overflow="visible"><path d="m48.75-6.25c-1.824219 1.804688-4.484375 3.433594-7.984375 4.890625-3.5 1.4453125-7.929687 2.171875-13.28125 2.171875-7.59375 0-13.773437-2.539062-18.53125-7.625-4.761719-5.082031-7.140625-11.691406-7.140625-19.828125v-1.921875c0-8.414062 2.347656-15.257812 7.046875-20.53125 4.695313-5.28125 10.828125-7.921875 18.390625-7.921875 4.40625 0 8.425781.703125 12.0625 2.109375 3.644531 1.398438 6.675781 3.292969 9.09375 5.6875v11.3125h-8.328125l-1.59375-7.53125c-1.03125-.875-2.390625-1.570312-4.078125-2.09375-1.679688-.53125-3.609375-.796875-5.796875-.796875-4.917969 0-8.742187 1.8125-11.46875 5.4375-2.730469 3.625-4.09375 8.375-4.09375 14.25v2c0 5.71875 1.335937 10.28125 4.015625 13.6875 2.675781 3.40625 6.535156 5.109375 11.578125 5.109375 2.269531 0 4.101563-.191406 5.5-.578125 1.40625-.382813 2.507813-.832031 3.3125-1.34375v-9.53125l-8.03125-.625v-7.90625h19.328125zm0 0"/></symbol><symbol id="f" overflow="visible"><path d="m1.578125-6.75 4.015625-.578125 17.109375-48.875h11.546875l16.984375 48.875 4.015625.578125v6.75h-19.15625v-6.75l3.90625-.703125-2.46875-7.71875h-18.234375l-2.46875 7.71875 3.90625.703125v6.75h-19.15625zm20.390625-16.71875h12.890625l-6.328125-19.8125h-.234375zm0 0"/></symbol><symbol id="g" overflow="visible"><path d="m59.609375-56.203125v6.78125l-6.03125 1.171875v48.25h-11.234375l-22.6875-37.828125-.234375.03125v29.890625l6.015625 1.15625v6.75h-23.28125v-6.75l5.984375-1.15625v-40.34375l-5.984375-1.171875v-6.78125h17.265625l22.703125 37.828125.21875-.046875v-29.828125l-6.015625-1.171875v-6.78125zm0 0"/></symbol><symbol id="h" overflow="visible"><path d="m2.125-49.421875v-6.78125h23.28125v6.78125l-6.03125 1.171875v40.34375l6.03125 1.15625v6.75h-23.28125v-6.75l6.015625-1.15625v-40.34375zm0 0"/></symbol><symbol id="i" overflow="visible"><path d="m44.859375-38.25h-8.453125l-1.46875-7.734375c-.980469-.613281-2.414062-1.148437-4.296875-1.609375-1.875-.46875-3.867187-.703125-5.96875-.703125-3.09375 0-5.484375.652344-7.171875 1.953125-1.679688 1.304688-2.515625 2.980469-2.515625 5.03125 0 1.90625.878906 3.476562 2.640625 4.703125 1.757812 1.21875 4.800781 2.511719 9.125 3.875 6.207031 1.71875 10.910156 3.996094 14.109375 6.828125 3.207031 2.835938 4.8125 6.554688 4.8125 11.15625 0 4.8125-1.90625 8.609375-5.71875 11.390625-3.804687 2.78125-8.820313 4.171875-15.046875 4.171875-4.460938 0-8.484375-.710938-12.078125-2.125-3.585937-1.414062-6.574219-3.375-8.96875-5.875v-11.734375h8.71875l1.203125 8c1.132812.929687 2.671875 1.695313 4.609375 2.296875 1.945313.605469 4.117187.90625 6.515625.90625 3.082031 0 5.425781-.628906 7.03125-1.890625 1.613281-1.257813 2.421875-2.945313 2.421875-5.0625 0-2.15625-.765625-3.890625-2.296875-5.203125s-4.214844-2.550781-8.046875-3.71875c-6.667969-1.925781-11.714844-4.210938-15.140625-6.859375-3.417969-2.65625-5.125-6.285156-5.125-10.890625 0-4.550781 1.925781-8.273438 5.78125-11.171875 3.863281-2.894531 8.71875-4.382813 14.5625-4.46875 4.320312 0 8.257812.65625 11.8125 1.96875 3.550781 1.3125 6.535156 3.0625 8.953125 5.25zm0 0"/></symbol><symbol id="j" overflow="visible"><path d="m38.453125-24.703125h-19.03125v16.0625h18.140625l.5-6.71875h8.578125v15.359375h-44.484375v-6.75l5.984375-1.15625v-40.34375l-5.984375-1.171875v-6.78125h44.40625v15.390625h-8.65625l-.5-6.703125h-17.984375v14.125h19.03125zm0 0"/></symbol><symbol id="k" overflow="visible"><path d="m2.15625 0v-6.75l5.984375-1.15625v-40.34375l-5.984375-1.171875v-6.78125h23.28125v6.78125l-6.015625 1.171875v39.609375h15.859375l.546875-7.078125h8.609375v15.71875zm0 0"/></symbol><symbol id="l" overflow="visible"><path d="m22.65625-49.421875-4.59375.671875 8.734375 18.4375h.21875l8.734375-18.4375-4.5625-.671875v-6.78125h21.28125v6.78125l-4.796875.78125-15.28125 28.875v11.859375l6.015625 1.15625v6.75h-23.265625v-6.75l6.015625-1.15625v-12.4375l-15.015625-28.296875-4.75-.78125v-6.78125h21.265625zm0 0"/></symbol><g clip-path="url(#a)" fill="#fff"><path d="m.890625 0h769.101563v209.484375h-769.101563zm0 0"/><path d="m.890625 0h769.101563v202h-769.101563zm0 0"/><path d="m.890625 0h769.101563v202h-769.101563zm0 0"/></g><g clip-path="url(#b)"><path d="m102.191406 202.753906c-55.777344 0-101.300781-45.527344-101.300781-101.453125 0-55.777343 45.523437-101.300781 101.300781-101.300781 55.925782 0 101.300782 45.523438 101.300782 101.300781.148437 55.925781-45.375 101.453125-101.300782 101.453125zm0-146.976562c-25.023437 0-45.527344 20.5-45.527344 45.523437 0 25.023438 20.503907 45.523438 45.527344 45.523438 25.023438 0 45.523438-20.5 45.523438-45.523438 0-25.023437-20.351563-45.523437-45.523438-45.523437zm0 0" fill="#5680e9"/></g><g fill="#5680e9"><use x="237.591088" xlink:href="#c" y="131.175896"/><use x="295.608889" xlink:href="#d" y="131.175896"/><use x="352.082966" xlink:href="#e" y="131.175896"/><use x="406.434418" xlink:href="#f" y="131.175896"/><use x="465.339864" xlink:href="#g" y="131.175896"/><use x="528.529159" xlink:href="#h" y="131.175896"/><use x="558.181029" xlink:href="#i" y="131.175896"/><use x="608.248654" xlink:href="#j" y="131.175896"/><use x="660.863425" xlink:href="#k" y="131.175896"/><use x="709.310111" xlink:href="#l" y="131.175896"/></g></svg>